<svg width="800" height="400" viewBox="0 0 800 400" xmlns="http://www.w3.org/2000/svg">
  <defs>
    <linearGradient id="bgGradient" x1="0%" y1="0%" x2="100%" y2="100%">
      <stop offset="0%" style="stop-color:#7c3aed;stop-opacity:1" />
      <stop offset="100%" style="stop-color:#a855f7;stop-opacity:1" />
    </linearGradient>
    <linearGradient id="terminalGradient" x1="0%" y1="0%" x2="0%" y2="100%">
      <stop offset="0%" style="stop-color:#1f2937;stop-opacity:1" />
      <stop offset="100%" style="stop-color:#111827;stop-opacity:1" />
    </linearGradient>
  </defs>

  <!-- Background -->
  <rect width="800" height="400" fill="url(#bgGradient)"/>

  <!-- Terminal Window -->
  <rect x="80" y="100" width="640" height="250" rx="10" fill="url(#terminalGradient)" stroke="#374151" stroke-width="2"/>

  <!-- Terminal Header -->
  <rect x="80" y="100" width="640" height="30" rx="10" fill="#374151"/>
  <rect x="80" y="120" width="640" height="2" fill="#4b5563"/>

  <!-- Terminal Controls -->
  <circle cx="100" cy="115" r="5" fill="#ef4444"/>
  <circle cx="115" cy="115" r="5" fill="#f59e0b"/>
  <circle cx="130" cy="115" r="5" fill="#10b981"/>

  <!-- Terminal Title -->
  <text x="360" y="120" font-family="monospace" font-size="12" fill="#d1d5db" text-anchor="middle">ytx - YouTube Transcript Extractor</text>

  <!-- Command Line -->
  <text x="100" y="155" font-family="monospace" font-size="14" fill="#10b981">$</text>
  <text x="115" y="155" font-family="monospace" font-size="14" fill="#f3f4f6">ytx "https://youtube.com/watch?v=..."</text>

  <!-- JSON Output -->
  <text x="100" y="185" font-family="monospace" font-size="12" fill="#60a5fa">{</text>
  <text x="115" y="205" font-family="monospace" font-size="11" fill="#fbbf24">  "title":</text>
  <text x="175" y="205" font-family="monospace" font-size="11" fill="#34d399">"Building Amazing Apps"</text>
  <text x="115" y="220" font-family="monospace" font-size="11" fill="#fbbf24">  "url":</text>
  <text x="155" y="220" font-family="monospace" font-size="11" fill="#34d399">"https://youtube.com/..."</text>
  <text x="115" y="235" font-family="monospace" font-size="11" fill="#fbbf24">  "transcript":</text>
  <text x="195" y="235" font-family="monospace" font-size="11" fill="#34d399">"Welcome to today's..."</text>
  <text x="115" y="250" font-family="monospace" font-size="11" fill="#fbbf24">  "transcriptRaw":</text>
  <text x="215" y="250" font-family="monospace" font-size="11" fill="#34d399">"[00:15] Welcome..."</text>
  <text x="100" y="270" font-family="monospace" font-size="12" fill="#60a5fa">}</text>

  <!-- .NET Logo -->
  <circle cx="650" cy="180" r="25" fill="#512bd4"/>
  <path d="M635 180 L665 180 M650 165 L650 195" stroke="#ffffff" stroke-width="3" stroke-linecap="round"/>
  <circle cx="640" cy="170" r="3" fill="#ffffff"/>
  <circle cx="660" cy="190" r="3" fill="#ffffff"/>

  <!-- YouTube Logo -->
  <rect x="70" y="160" width="50" height="35" rx="8" fill="#ff0000"/>
  <polygon points="85,170 85,185 105,177.5" fill="#ffffff"/>

  <!-- Title -->
  <text x="400" y="60" font-family="Arial, sans-serif" font-size="36" font-weight="bold" fill="#ffffff" text-anchor="middle">ytx</text>

  <!-- Subtitle -->
  <text x="400" y="380" font-family="Arial, sans-serif" font-size="18" fill="#c4b5fd" text-anchor="middle">YouTube Transcript Extractor • .NET Global Tool</text>

  <!-- Decorative Elements -->
  <circle cx="750" cy="50" r="3" fill="#fbbf24" opacity="0.6"/>
  <circle cx="730" cy="70" r="2" fill="#34d399" opacity="0.8"/>
  <circle cx="770" cy="80" r="4" fill="#60a5fa" opacity="0.7"/>
  <circle cx="50" cy="50" r="2" fill="#f472b6" opacity="0.6"/>
  <circle cx="30" cy="80" r="3" fill="#fbbf24" opacity="0.8"/>
  <circle cx="70" cy="90" r="2" fill="#34d399" opacity="0.7"/>
</svg>